<svg xmlns="http://www.w3.org/2000/svg" width="253.41" height="253.409" viewBox="0 0 253.41 253.409"><path d="M1697.777,5215.9l9.853-9.658,8.22,11.081,11.242-8,6.385,12.23,12.355-6.142,4.394,13.08,13.164-4.134,2.293,13.605,13.648-2.023.137,13.8,13.8.137-2.023,13.648,13.605,2.293-4.133,13.164,13.079,4.393-6.142,12.355,12.231,6.385-8,11.242,11.081,8.22-9.659,9.853,9.659,9.852-11.081,8.22,8,11.243-12.231,6.385,6.142,12.355-13.079,4.394,4.133,13.164-13.605,2.293,2.023,13.648-13.8.137-.137,13.8-13.648-2.023-2.293,13.605-13.164-4.133-4.394,13.079-12.355-6.142-6.385,12.231-11.242-8-8.22,11.081-9.853-9.659-9.852,9.659-8.22-11.081-11.242,8-6.386-12.231-12.355,6.142-4.394-13.079-13.164,4.133-2.294-13.605-13.648,2.023-.137-13.8-13.8-.137,2.023-13.648-13.605-2.293,4.133-13.164-13.079-4.394,6.142-12.355-12.231-6.385,8-11.243-11.081-8.22,9.659-9.852-9.659-9.853,11.081-8.22-8-11.242,12.231-6.385-6.142-12.355,13.079-4.393-4.133-13.164,13.605-2.293-2.023-13.648,13.8-.137.137-13.8,13.648,2.023,2.294-13.605,13.164,4.134,4.394-13.08,12.355,6.142,6.386-12.23,11.242,8,8.22-11.081Z" transform="translate(-1571.072 -5204.729)" fill="none" stroke="#fff" stroke-miterlimit="10" stroke-width="2"/></svg>